<svg width="263" height="356" viewBox="0 0 263 356" fill="none" xmlns="http://www.w3.org/2000/svg">
<mask id="mask0" mask-type="alpha" maskUnits="userSpaceOnUse" x="0" y="0" width="263" height="356">
<rect width="263" height="356" fill="#C4C4C4"/>
</mask>
<g mask="url(#mask0)">
<path d="M162.247 0.500916C146.297 2.4512 129.302 6.63037 115.859 11.9936C51.9172 37.208 7.68764 95.2984 0.583047 163.28C-0.601051 174.912 0.0954775 201.171 1.9761 211.897C3.71743 222.206 6.7125 233.908 10.0558 243.52C13.1902 252.644 21.3396 269.57 26.7725 278.346C39.9369 299.59 59.9969 320.486 80.0569 333.859C98.1667 345.909 123.102 357.123 129.58 356.009C133.063 355.382 136.267 352.735 137.033 349.88C137.381 348.626 137.521 339.71 137.312 330.029L136.963 312.337L134.804 312.755C118.645 316.098 103.53 314.635 92.2462 308.784C87.2312 306.138 79.639 298.685 77.4798 294.366C76.644 292.625 74.6937 288.585 73.1613 285.311C69.0518 276.535 64.1064 270.475 56.4446 264.764C48.8525 259.052 47.5987 257.241 50.0366 255.291C51.2207 254.316 52.753 253.968 55.9571 254.037C60.5542 254.107 65.5692 255.5 64.1761 256.336C62.992 257.102 63.1313 260.027 64.4547 260.515C67.6587 261.769 69.9573 259.958 68.1463 257.659C66.9622 256.266 67.5891 256.545 72.3255 259.749C75.1812 261.699 75.3206 261.908 73.9275 262.396C71.9772 263.092 71.9076 265.809 73.7185 267.48C75.4599 269.082 77.4798 268.664 77.9674 266.644L78.3156 264.973L79.848 266.644C80.6142 267.55 82.9824 270.754 85.0023 273.819C89.1118 280.018 94.0572 285.172 98.1667 287.471C100.813 289.003 101.789 290.187 100.256 290.187C98.9329 290.187 99.4901 294.297 100.883 295.063C104.226 296.804 108.615 295.132 107.639 292.555C107.291 291.58 107.57 291.441 109.381 291.859C110.565 292.068 113.003 292.277 114.814 292.346C116.555 292.346 117.53 292.555 116.973 292.764C115.859 293.182 114.187 294.993 114.187 295.829C114.187 297.083 116.555 298.545 118.714 298.545C120.734 298.545 123.242 297.152 123.242 296.038C123.242 294.854 121.64 292.973 120.595 292.904C119.968 292.904 121.64 292.416 124.287 291.859C127.003 291.371 131.043 290.257 133.411 289.421L137.66 287.889L138.844 282.734C140.376 276.465 143.859 269.222 147.202 265.53C148.595 264.067 149.71 262.744 149.71 262.605C149.71 262.465 148.804 262.326 147.69 262.326C143.859 262.326 127.003 258.913 120.665 256.823C89.2511 246.584 72.1165 225.41 67.4498 191.28C66.196 181.877 66.3353 164.324 67.7284 158.056C70.1662 147.19 74.4847 137.578 80.2659 130.055C81.8679 128.035 83.6092 125.806 84.0968 125.18C84.7933 124.204 84.654 122.951 83.5396 118.423C80.5445 106.861 81.1714 92.7909 85.2113 80.741L86.8133 76.0046L91.2014 75.7956C99.6294 75.3777 113.49 80.532 128.466 89.5172L136.754 94.4626L144.416 92.7213C169.143 87.2187 195.75 87.2187 220.477 92.7909L228.278 94.4626L236.428 89.5172C251.612 80.3231 262.896 76.0742 272.229 76.0046H278.15L279.752 81.1589C283.792 94.0447 284.349 106.93 281.354 118.423C280.239 122.951 280.1 124.204 280.796 125.11C281.284 125.806 283.025 128.035 284.627 130.195C295.424 144.334 299.812 161.538 298.07 182.922C296.817 198.942 294.1 209.808 288.667 220.883C277.662 243.311 255.025 257.102 221.522 261.629C218.039 262.117 215.183 262.674 215.183 262.883C215.183 263.092 216.437 264.555 217.9 266.157C221.383 269.918 223.89 274.933 225.84 281.689C227.233 286.774 227.373 288.655 227.512 317.003C227.582 333.511 227.651 347.86 227.651 348.904C227.721 351.691 231.552 355.382 234.965 356.079C241.303 357.263 265.96 346.397 283.792 334.556C304.757 320.625 324.608 300.078 338.121 278.346C348.569 261.42 357.554 238.853 361.385 219.42C364.241 205.211 364.937 197.758 364.937 182.086C364.937 150.881 358.32 123.926 344.041 96.7611C321.056 52.9495 279.473 19.3768 231.97 6.2821C215.044 1.61536 205.153 0.291958 185.233 0.0133462C175.481 -0.0563066 165.103 0.152652 162.247 0.500916Z" fill="url(#paint0_linear)"/>
</g>
<defs>
<linearGradient id="paint0_linear" x1="182.469" y1="356.167" x2="182.469" y2="0" gradientUnits="userSpaceOnUse">
<stop stop-color="#8C8383" stop-opacity="0"/>
<stop offset="1" stop-color="#E4E4E4"/>
</linearGradient>
</defs>
</svg>
